<svg xmlns="http://www.w3.org/2000/svg" height="500" width="1300">
<rect width="1300" height="500" x="0" y="0" fill="white"></rect>
<line x1="260" y1="100" x2="380" y2="70" stroke="black" stroke-width="3"
/><line x1="220" y1="130" x2="260" y2="100" stroke="black" stroke-width="3"
/><line x1="60" y1="160" x2="220" y2="130" stroke="black" stroke-width="3"
/><line x1="160" y1="190" x2="60" y2="160" stroke="black" stroke-width="3"
/><line x1="80" y1="220" x2="160" y2="190" stroke="black" stroke-width="3"
/><line x1="100" y1="250" x2="80" y2="220" stroke="black" stroke-width="3"
/><circle cx="100" cy="250" r="10" stroke="black" stroke-width="2.0" fill="white" />
<text x="100" y="250" alignment-baseline="middle" font-weight="bold" font-family="Arial" text-anchor="middle" font-size="10">13</text>
<circle cx="80" cy="220" r="10" stroke="black" stroke-width="2.0" fill="white" />
<text x="80" y="220" alignment-baseline="middle" font-weight="bold" font-family="Arial" text-anchor="middle" font-size="10">8</text>
<circle cx="160" cy="190" r="10" stroke="black" stroke-width="2.0" fill="white" />
<text x="160" y="190" alignment-baseline="middle" font-weight="bold" font-family="Arial" text-anchor="middle" font-size="10">15</text>
<circle cx="60" cy="160" r="10" stroke="black" stroke-width="2.0" fill="white" />
<text x="60" y="160" alignment-baseline="middle" font-weight="bold" font-family="Arial" text-anchor="middle" font-size="10">2</text>
<circle cx="220" cy="130" r="10" stroke="black" stroke-width="2.0" fill="white" />
<text x="220" y="130" alignment-baseline="middle" font-weight="bold" font-family="Arial" text-anchor="middle" font-size="10">21</text>
<line x1="280" y1="130" x2="260" y2="100" stroke="black" stroke-width="3"
/><line x1="300" y1="160" x2="280" y2="130" stroke="black" stroke-width="3"
/><circle cx="300" cy="160" r="10" stroke="black" stroke-width="2.0" fill="white" />
<text x="300" y="160" alignment-baseline="middle" font-weight="bold" font-family="Arial" text-anchor="middle" font-size="10">42</text>
<circle cx="280" cy="130" r="10" stroke="black" stroke-width="2.0" fill="white" />
<text x="280" y="130" alignment-baseline="middle" font-weight="bold" font-family="Arial" text-anchor="middle" font-size="10">39</text>
<circle cx="260" cy="100" r="10" stroke="black" stroke-width="2.0" fill="white" />
<text x="260" y="100" alignment-baseline="middle" font-weight="bold" font-family="Arial" text-anchor="middle" font-size="10">26</text>
<line x1="1200" y1="100" x2="380" y2="70" stroke="black" stroke-width="3"
/><line x1="960" y1="130" x2="1200" y2="100" stroke="black" stroke-width="3"
/><line x1="760" y1="160" x2="960" y2="130" stroke="black" stroke-width="3"
/><line x1="680" y1="190" x2="760" y2="160" stroke="black" stroke-width="3"
/><line x1="440" y1="220" x2="680" y2="190" stroke="black" stroke-width="3"
/><line x1="400" y1="250" x2="440" y2="220" stroke="black" stroke-width="3"
/><circle cx="400" cy="250" r="10" stroke="black" stroke-width="2.0" fill="white" />
<text x="400" y="250" alignment-baseline="middle" font-weight="bold" font-family="Arial" text-anchor="middle" font-size="10">45</text>
<line x1="460" y1="250" x2="440" y2="220" stroke="black" stroke-width="3"
/><line x1="560" y1="280" x2="460" y2="250" stroke="black" stroke-width="3"
/><line x1="520" y1="310" x2="560" y2="280" stroke="black" stroke-width="3"
/><line x1="480" y1="340" x2="520" y2="310" stroke="black" stroke-width="3"
/><circle cx="480" cy="340" r="10" stroke="black" stroke-width="2.0" fill="white" />
<text x="480" y="340" alignment-baseline="middle" font-weight="bold" font-family="Arial" text-anchor="middle" font-size="10">50</text>
<circle cx="520" cy="310" r="10" stroke="black" stroke-width="2.0" fill="white" />
<text x="520" y="310" alignment-baseline="middle" font-weight="bold" font-family="Arial" text-anchor="middle" font-size="10">51</text>
<line x1="580" y1="310" x2="560" y2="280" stroke="black" stroke-width="3"
/><circle cx="580" cy="310" r="10" stroke="black" stroke-width="2.0" fill="white" />
<text x="580" y="310" alignment-baseline="middle" font-weight="bold" font-family="Arial" text-anchor="middle" font-size="10">58</text>
<circle cx="560" cy="280" r="10" stroke="black" stroke-width="2.0" fill="white" />
<text x="560" y="280" alignment-baseline="middle" font-weight="bold" font-family="Arial" text-anchor="middle" font-size="10">54</text>
<circle cx="460" cy="250" r="10" stroke="black" stroke-width="2.0" fill="white" />
<text x="460" y="250" alignment-baseline="middle" font-weight="bold" font-family="Arial" text-anchor="middle" font-size="10">49</text>
<circle cx="440" cy="220" r="10" stroke="black" stroke-width="2.0" fill="white" />
<text x="440" y="220" alignment-baseline="middle" font-weight="bold" font-family="Arial" text-anchor="middle" font-size="10">46</text>
<line x1="700" y1="220" x2="680" y2="190" stroke="black" stroke-width="3"
/><circle cx="700" cy="220" r="10" stroke="black" stroke-width="2.0" fill="white" />
<text x="700" y="220" alignment-baseline="middle" font-weight="bold" font-family="Arial" text-anchor="middle" font-size="10">68</text>
<circle cx="680" cy="190" r="10" stroke="black" stroke-width="2.0" fill="white" />
<text x="680" y="190" alignment-baseline="middle" font-weight="bold" font-family="Arial" text-anchor="middle" font-size="10">64</text>
<line x1="780" y1="190" x2="760" y2="160" stroke="black" stroke-width="3"
/><line x1="880" y1="220" x2="780" y2="190" stroke="black" stroke-width="3"
/><line x1="840" y1="250" x2="880" y2="220" stroke="black" stroke-width="3"
/><line x1="800" y1="280" x2="840" y2="250" stroke="black" stroke-width="3"
/><circle cx="800" cy="280" r="10" stroke="black" stroke-width="2.0" fill="white" />
<text x="800" y="280" alignment-baseline="middle" font-weight="bold" font-family="Arial" text-anchor="middle" font-size="10">76</text>
<circle cx="840" cy="250" r="10" stroke="black" stroke-width="2.0" fill="white" />
<text x="840" y="250" alignment-baseline="middle" font-weight="bold" font-family="Arial" text-anchor="middle" font-size="10">79</text>
<circle cx="880" cy="220" r="10" stroke="black" stroke-width="2.0" fill="white" />
<text x="880" y="220" alignment-baseline="middle" font-weight="bold" font-family="Arial" text-anchor="middle" font-size="10">80</text>
<circle cx="780" cy="190" r="10" stroke="black" stroke-width="2.0" fill="white" />
<text x="780" y="190" alignment-baseline="middle" font-weight="bold" font-family="Arial" text-anchor="middle" font-size="10">74</text>
<circle cx="760" cy="160" r="10" stroke="black" stroke-width="2.0" fill="white" />
<text x="760" y="160" alignment-baseline="middle" font-weight="bold" font-family="Arial" text-anchor="middle" font-size="10">73</text>
<line x1="1020" y1="160" x2="960" y2="130" stroke="black" stroke-width="3"
/><line x1="980" y1="190" x2="1020" y2="160" stroke="black" stroke-width="3"
/><circle cx="980" cy="190" r="10" stroke="black" stroke-width="2.0" fill="white" />
<text x="980" y="190" alignment-baseline="middle" font-weight="bold" font-family="Arial" text-anchor="middle" font-size="10">84</text>
<line x1="1080" y1="190" x2="1020" y2="160" stroke="black" stroke-width="3"
/><line x1="1040" y1="220" x2="1080" y2="190" stroke="black" stroke-width="3"
/><circle cx="1040" cy="220" r="10" stroke="black" stroke-width="2.0" fill="white" />
<text x="1040" y="220" alignment-baseline="middle" font-weight="bold" font-family="Arial" text-anchor="middle" font-size="10">88</text>
<line x1="1100" y1="220" x2="1080" y2="190" stroke="black" stroke-width="3"
/><circle cx="1100" cy="220" r="10" stroke="black" stroke-width="2.0" fill="white" />
<text x="1100" y="220" alignment-baseline="middle" font-weight="bold" font-family="Arial" text-anchor="middle" font-size="10">93</text>
<circle cx="1080" cy="190" r="10" stroke="black" stroke-width="2.0" fill="white" />
<text x="1080" y="190" alignment-baseline="middle" font-weight="bold" font-family="Arial" text-anchor="middle" font-size="10">90</text>
<circle cx="1020" cy="160" r="10" stroke="black" stroke-width="2.0" fill="white" />
<text x="1020" y="160" alignment-baseline="middle" font-weight="bold" font-family="Arial" text-anchor="middle" font-size="10">87</text>
<circle cx="960" cy="130" r="10" stroke="black" stroke-width="2.0" fill="white" />
<text x="960" y="130" alignment-baseline="middle" font-weight="bold" font-family="Arial" text-anchor="middle" font-size="10">81</text>
<circle cx="1200" cy="100" r="10" stroke="black" stroke-width="2.0" fill="white" />
<text x="1200" y="100" alignment-baseline="middle" font-weight="bold" font-family="Arial" text-anchor="middle" font-size="10">96</text>
<circle cx="380" cy="70" r="10" stroke="black" stroke-width="2.0" fill="white" />
<text x="380" y="70" alignment-baseline="middle" font-weight="bold" font-family="Arial" text-anchor="middle" font-size="10">44</text>
</svg>
